<svg width="63" height="58" viewBox="0 0 63 58" fill="none" xmlns="http://www.w3.org/2000/svg">
<path d="M62.6851 57.2466H11.6611V0.554589H62.6851V57.2466Z" fill="#C94416"/>
<path d="M5.99162 57.2466H0.322266V0.554589H5.99162V57.2466Z" fill="#C94416"/>
<path d="M54.0833 40.2494V42.6227H52.1754V40.2494H50.1767V42.6227H48.2673V40.2494H46.2687V42.6227H44.3607V40.2494H42.3634V42.6227H40.454V40.2494H38.4553V42.6227H36.5474V40.2494H34.6113V44.748H56.0207V40.2494H54.0833Z" fill="white"/>
<path d="M37.0028 50.344C36.4708 49.6293 35.9787 48.8786 35.5801 48.0213C35.9014 48.0306 36.3747 47.9827 36.8681 47.8453C37.6174 47.6373 38.1054 47.3453 38.5707 46.9773C38.6947 46.8787 38.9174 46.6627 39.0881 46.4853C39.2401 46.3307 39.3494 46.2053 39.3494 46.2053L39.3507 46.204C39.3507 46.204 39.7921 46.916 40.1801 47.312C40.6388 47.7786 41.2654 48.14 42.2574 48.14C43.4054 48.14 44.3067 47.276 44.4481 47.1453C44.5694 47.032 44.7268 46.8773 44.8814 46.7106C45.0628 46.5173 45.2347 46.3093 45.3267 46.192C45.4187 46.3093 45.5907 46.5173 45.7721 46.7106C45.9267 46.8773 46.0841 47.032 46.2068 47.1453C46.3468 47.276 47.2494 48.14 48.3961 48.14C49.3881 48.14 50.0147 47.7786 50.4734 47.312C50.8614 46.916 51.3054 46.204 51.3054 46.204C51.3054 46.204 51.4148 46.3307 51.5654 46.4853C51.7374 46.6627 51.9587 46.8773 52.0841 46.9773C52.5481 47.3453 53.0361 47.6373 53.7868 47.8453C54.2788 47.9813 54.7535 48.0293 55.0748 48.0213C54.6748 48.8786 54.184 49.6293 53.6507 50.3427C53.464 50.2667 53.2107 50.2066 52.8094 49.996C51.9454 49.5413 51.4001 49.0093 51.2401 48.7467C51.1427 48.9133 51.1281 48.916 50.9734 49.1306C50.8894 49.236 50.7374 49.44 50.5894 49.592C50.4681 49.72 50.2214 49.9387 50.0854 50.04C48.8441 50.972 47.5614 50.7773 46.6841 50.12C45.8387 49.488 45.3267 48.7067 45.3267 48.7067C45.3267 48.7067 44.8148 49.488 43.9721 50.12C43.0921 50.7773 41.8094 50.972 40.5681 50.04C40.4321 49.9387 40.1867 49.72 40.064 49.592C39.9174 49.44 39.7641 49.236 39.6801 49.1306C39.5268 48.916 39.5107 48.9133 39.4147 48.7467C39.2534 49.0093 38.7081 49.5413 37.8441 49.996C37.4427 50.2066 37.1908 50.268 37.0028 50.344Z" fill="white"/>
<path d="M55.9725 32.4078H55.9765L56.4072 32.2171C56.4072 32.2171 55.2592 29.0424 54.8125 26.9931C55.1192 26.9104 55.3445 26.6344 55.3445 26.3078C55.3445 26.0224 55.1752 25.7784 54.9312 25.6638L55.0539 25.4224C55.0539 25.4224 54.7818 25.3078 54.7818 24.8918V24.6904H55.0232C55.4379 24.6904 55.5539 24.9624 55.5539 24.9624L55.6685 24.8544V24.2024L55.5539 24.0944C55.5539 24.0944 55.4379 24.3678 55.0232 24.3678L54.7805 24.3664V24.1251C54.7805 23.7091 55.0539 23.5931 55.0539 23.5931L54.9445 23.4784H54.2952L54.1859 23.5931C54.1859 23.5931 54.4591 23.7091 54.4591 24.1251V24.3678H54.2152C53.8018 24.3678 53.6859 24.0944 53.6859 24.0944L53.5698 24.2024V24.8544L53.6859 24.9624C53.6859 24.9624 53.8018 24.6904 54.2152 24.6904H54.4591V24.8918C54.4591 25.3078 54.1859 25.4224 54.1859 25.4224L54.3098 25.6651C54.0685 25.7811 53.9006 26.0238 53.9006 26.3078C53.9006 26.6384 54.1312 26.9158 54.4405 26.9958C53.9938 29.0451 52.8472 32.2171 52.8472 32.2171L53.2725 32.4064V35.4198H51.3179V32.4078H51.3219L51.7525 32.2171C51.7525 32.2171 50.6045 29.0424 50.1579 26.9931C50.4645 26.9104 50.6899 26.6344 50.6899 26.3078C50.6899 26.0224 50.5205 25.7784 50.2751 25.6638L50.4006 25.4224C50.4006 25.4224 50.1272 25.3078 50.1272 24.8918V24.6904H50.3672C50.7832 24.6904 50.8992 24.9624 50.8992 24.9624L51.0152 24.8544V24.2024L50.8992 24.0944C50.8992 24.0944 50.7832 24.3678 50.3672 24.3678L50.1258 24.3664V24.1251C50.1258 23.7091 50.3992 23.5931 50.3992 23.5931L50.2912 23.4784H49.6392L49.5299 23.5931C49.5299 23.5931 49.8045 23.7091 49.8045 24.1251V24.3678H49.5618C49.1445 24.3678 49.0299 24.0944 49.0299 24.0944L48.9152 24.2024V24.8544L49.0299 24.9624C49.0299 24.9624 49.1445 24.6904 49.5618 24.6904H49.8045V24.8918C49.8045 25.3078 49.5299 25.4224 49.5299 25.4224L49.6552 25.6651C49.4139 25.7811 49.2459 26.0238 49.2459 26.3078C49.2459 26.6384 49.4752 26.9158 49.7859 26.9958C49.3392 29.0451 48.1925 32.2171 48.1925 32.2171L48.6178 32.4064V35.4198H46.6632V32.4078H46.6672L47.0978 32.2171C47.0978 32.2171 45.9472 27.3718 45.5019 25.1864C45.8085 25.1038 46.0339 24.8278 46.0339 24.4998C46.0339 24.2158 45.8645 23.9704 45.6218 23.8571L45.7458 23.6144C45.7458 23.6144 45.4712 23.4998 45.4712 23.0838V22.8824H45.7125C46.1298 22.8824 46.2445 23.1544 46.2445 23.1544L46.3605 23.0464V22.3958L46.2445 22.2864C46.2445 22.2864 46.1298 22.5598 45.7125 22.5598H45.4712V22.3171C45.4712 21.9011 45.7445 21.7864 45.7445 21.7864L45.6366 21.6704H44.9845L44.8765 21.7864C44.8765 21.7864 45.1485 21.9011 45.1485 22.3171V22.5598H44.9072C44.4912 22.5598 44.3752 22.2864 44.3752 22.2864L44.2605 22.3958V23.0464L44.3752 23.1544C44.3752 23.1544 44.4912 22.8824 44.9072 22.8824H45.1498V23.0838C45.1498 23.4998 44.8765 23.6144 44.8765 23.6144L45.0005 23.8584C44.7578 23.9731 44.5898 24.2171 44.5898 24.4998C44.5898 24.8318 44.8219 25.1104 45.1339 25.1891C44.6885 27.3758 43.5378 32.2171 43.5378 32.2171L43.9632 32.4064V35.4198H42.0098V32.4078H42.0125L42.4445 32.2171C42.4445 32.2171 41.2965 29.0424 40.8499 26.9931C41.1539 26.9104 41.3792 26.6344 41.3792 26.3078C41.3792 26.0224 41.2098 25.7784 40.9658 25.6638L41.0898 25.4064C41.0898 25.4064 40.8165 25.2918 40.8165 24.8758V24.6744H41.0592C41.4738 24.6744 41.5898 24.9478 41.5898 24.9478L41.7045 24.8398V24.1878L41.5898 24.0798C41.5898 24.0798 41.4738 24.3518 41.0592 24.3518H40.8165V24.1091C40.8165 23.6944 41.0898 23.5784 41.0898 23.5784L40.9806 23.4638H40.3298L40.2205 23.5784C40.2205 23.5784 40.4938 23.6944 40.4938 24.1091V24.3518H40.2512C39.8366 24.3518 39.7218 24.0798 39.7218 24.0798L39.6059 24.1878V24.8398L39.7218 24.9478C39.7218 24.9478 39.8366 24.6744 40.2512 24.6744H40.4952V24.8758C40.4952 25.2918 40.2218 25.4064 40.2218 25.4064L40.3472 25.6651C40.1032 25.7798 39.9365 26.0238 39.9365 26.3078C39.9365 26.6384 40.1658 26.9158 40.4752 26.9958C40.0298 29.0451 38.8818 32.2171 38.8818 32.2171L39.3085 32.4064V35.4198H37.3552V32.4078H37.3592L37.7885 32.2171C37.7885 32.2171 36.6405 29.0424 36.1938 26.9931C36.5005 26.9104 36.7245 26.6344 36.7245 26.3078C36.7245 26.0224 36.5551 25.7784 36.3098 25.6638L36.4365 25.4064C36.4365 25.4064 36.1632 25.2918 36.1632 24.8758V24.6744H36.4045C36.8192 24.6744 36.9338 24.9478 36.9338 24.9478L37.0499 24.8398V24.1878L36.9338 24.0798C36.9338 24.0798 36.8192 24.3518 36.4045 24.3518H36.1619V24.1091C36.1619 23.6944 36.4352 23.5784 36.4352 23.5784L36.3258 23.4638H35.6752L35.5672 23.5784C35.5672 23.5784 35.8405 23.6944 35.8405 24.1091V24.3518H35.5978C35.1818 24.3518 35.0672 24.0798 35.0672 24.0798L34.9512 24.1878V24.8398L35.0672 24.9478C35.0672 24.9478 35.1818 24.6744 35.5978 24.6744H35.8405V24.8758C35.8405 25.2918 35.5672 25.4064 35.5672 25.4064L35.6925 25.6651C35.4499 25.7798 35.2818 26.0238 35.2818 26.3078C35.2818 26.6384 35.5112 26.9158 35.8219 26.9958C35.3739 29.0451 34.2285 32.2171 34.2285 32.2171L34.6539 32.4064V35.6424H34.6525V38.2251H55.9725V35.7518V32.4078Z" fill="white"/>
</svg>
