<svg width="176" height="57" viewBox="0 0 176 57" fill="none" xmlns="http://www.w3.org/2000/svg">
<path d="M62.3629 56.6919H11.3389V-9.83462e-05H62.3629V56.6919Z" fill="white"/>
<path d="M5.66935 56.6919H0V-9.83462e-05H5.66935V56.6919Z" fill="white"/>
<path d="M78.4507 37.9824H75.3747L72.48 34.1051L71.9014 34.8184V37.9824H69.4014V28.2878H71.9014V32.6771L75.3626 28.2878H78.2627L74.4733 32.7744L78.4507 37.9824Z" fill="white"/>
<path d="M85.1863 34.2464L83.9916 30.7691L82.7983 34.2464H85.1863ZM89.0462 37.9824H86.4636L85.7876 36.0251H82.1969L81.5222 37.9824H79.0049L82.5876 28.2878H85.4649L89.0462 37.9824Z" fill="white"/>
<path d="M97.825 37.9824H90.833V28.2878H93.333V36.1077H97.825V37.9824Z" fill="white"/>
<path d="M107.69 34.4734C107.69 35.6721 107.324 36.5894 106.595 37.2281C105.866 37.8654 104.79 38.1841 103.371 38.1841C101.95 38.1841 100.875 37.8654 100.15 37.2281C99.4217 36.5894 99.0576 35.6734 99.0576 34.4801V28.2881H101.571V34.3387C101.571 35.0107 101.712 35.5121 101.995 35.8427C102.276 36.1721 102.736 36.3374 103.371 36.3374C103.995 36.3374 104.454 36.1787 104.742 35.8614C105.031 35.5441 105.175 35.0374 105.175 34.3387V28.2881H107.69V34.4734Z" fill="white"/>
<path d="M119.243 37.9824H116.833L112.713 31.3291V37.9824H110.423V28.2878H113.412L116.951 33.8424V28.2878H119.243V37.9824Z" fill="white"/>
<path d="M128.688 33.1251C128.688 32.4877 128.572 31.9424 128.34 31.4891C128.107 31.0371 127.74 30.6811 127.236 30.4264C126.98 30.2997 126.718 30.2144 126.451 30.1691C126.184 30.1238 125.782 30.1011 125.244 30.1011H124.612V36.1638H125.244C125.839 36.1638 126.275 36.1358 126.552 36.0824C126.83 36.0278 127.102 35.9291 127.367 35.7864C127.822 35.5264 128.156 35.1771 128.37 34.7424C128.583 34.3064 128.688 33.7664 128.688 33.1251ZM131.271 33.1451C131.271 34.0477 131.066 34.8571 130.652 35.5704C130.242 36.2851 129.72 36.8331 129.091 37.2144C128.618 37.5011 128.099 37.7011 127.535 37.8131C126.971 37.9264 126.303 37.9824 125.531 37.9824H122.112V28.2878H125.628C126.418 28.2878 127.098 28.3544 127.671 28.4864C128.244 28.6197 128.726 28.8077 129.116 29.0504C129.786 29.4584 130.312 30.0078 130.696 30.7011C131.08 31.3931 131.271 32.2077 131.271 33.1451Z" fill="white"/>
<path d="M139.281 34.9744C139.281 34.6651 139.221 34.4277 139.101 34.2597C138.983 34.0931 138.78 33.9691 138.493 33.8864C138.299 33.8291 138.029 33.7997 137.687 33.7944C137.344 33.7904 136.985 33.7878 136.612 33.7878H136.065V36.2051H136.248C136.951 36.2051 137.455 36.2038 137.759 36.1984C138.061 36.1944 138.341 36.1384 138.597 36.0291C138.859 35.9211 139.037 35.7757 139.135 35.5957C139.232 35.4157 139.281 35.2078 139.281 34.9744ZM138.677 31.0291C138.677 30.8691 138.637 30.7078 138.556 30.5478C138.476 30.3864 138.333 30.2678 138.129 30.1891C137.945 30.1211 137.717 30.0824 137.447 30.0757C137.175 30.0691 136.792 30.0664 136.301 30.0664H136.065V32.1144H136.457C136.853 32.1144 137.191 32.1078 137.469 32.0944C137.748 32.0824 137.968 32.0384 138.129 31.9651C138.355 31.8651 138.503 31.7357 138.572 31.5784C138.643 31.4197 138.677 31.2371 138.677 31.0291ZM141.877 35.0131C141.877 35.4811 141.784 35.9011 141.595 36.2691C141.407 36.6398 141.147 36.9451 140.816 37.1877C140.433 37.4744 140.015 37.6784 139.556 37.7997C139.097 37.9224 138.517 37.9824 137.815 37.9824H133.58V28.2878H137.344C138.125 28.2878 138.699 28.3144 139.06 28.3664C139.424 28.4184 139.781 28.5331 140.139 28.7104C140.507 28.8984 140.781 29.1478 140.961 29.4624C141.143 29.7771 141.232 30.1371 141.232 30.5398C141.232 31.0091 141.108 31.4224 140.861 31.7797C140.613 32.1384 140.263 32.4171 139.812 32.6157V32.6677C140.447 32.7944 140.949 33.0544 141.32 33.4504C141.693 33.8451 141.877 34.3664 141.877 35.0131Z" fill="white"/>
<path d="M150.248 35.5947C150.489 35.3001 150.669 34.9521 150.787 34.5494C150.904 34.1481 150.963 33.6761 150.963 33.1321C150.963 32.5507 150.895 32.0547 150.761 31.6467C150.627 31.2387 150.451 30.9081 150.235 30.6561C150.013 30.3961 149.759 30.2067 149.471 30.0894C149.181 29.9721 148.881 29.9134 148.569 29.9134C148.253 29.9134 147.955 29.9707 147.675 30.0827C147.396 30.1961 147.139 30.3828 146.905 30.6441C146.688 30.8868 146.512 31.2227 146.375 31.6494C146.239 32.0787 146.171 32.5747 146.171 33.1387C146.171 33.7161 146.237 34.2081 146.369 34.6147C146.5 35.0214 146.675 35.3521 146.892 35.6081C147.108 35.8654 147.363 36.0534 147.652 36.1761C147.943 36.2974 148.249 36.3587 148.569 36.3587C148.891 36.3587 149.196 36.2961 149.485 36.1721C149.776 36.0481 150.031 35.8561 150.248 35.5947ZM153.559 33.1387C153.559 34.6841 153.117 35.9107 152.232 36.8201C151.347 37.7294 150.124 38.1841 148.563 38.1841C147.005 38.1841 145.785 37.7294 144.9 36.8201C144.016 35.9107 143.573 34.6841 143.573 33.1387C143.573 31.5814 144.016 30.3494 144.9 29.4441C145.785 28.5387 147.005 28.0881 148.563 28.0881C150.115 28.0881 151.336 28.5387 152.225 29.4441C153.115 30.3494 153.559 31.5814 153.559 33.1387Z" fill="white"/>
<path d="M161.316 31.2584C161.316 31.0144 161.264 30.8064 161.164 30.6331C161.064 30.4597 160.892 30.3224 160.65 30.2224C160.48 30.1531 160.28 30.1104 160.055 30.0957C159.828 30.0811 159.564 30.0731 159.264 30.0731H158.358V32.6838H159.127C159.528 32.6838 159.863 32.6651 160.134 32.6251C160.403 32.5864 160.63 32.4971 160.812 32.3584C160.986 32.2238 161.114 32.0758 161.195 31.9131C161.274 31.7504 161.316 31.5318 161.316 31.2584ZM165.211 37.9824H162.156L159.518 34.4264H158.358V37.9824H155.871V28.2878H160.067C160.64 28.2878 161.134 28.3211 161.546 28.3864C161.959 28.4517 162.346 28.5931 162.706 28.8091C163.071 29.0264 163.36 29.3078 163.576 29.6518C163.791 29.9971 163.899 30.4291 163.899 30.9504C163.899 31.6664 163.732 32.2504 163.399 32.7024C163.066 33.1531 162.592 33.5291 161.974 33.8278L165.211 37.9824Z" fill="white"/>
<path d="M175.276 37.4281C174.843 37.5974 174.267 37.7667 173.551 37.9334C172.835 38.1001 172.122 38.1841 171.41 38.1841C169.762 38.1841 168.47 37.7361 167.538 36.8401C166.604 35.9441 166.138 34.7054 166.138 33.1267C166.138 31.6214 166.608 30.4067 167.55 29.4841C168.491 28.5627 169.804 28.1014 171.486 28.1014C172.124 28.1014 172.732 28.1588 173.31 28.2734C173.886 28.3881 174.528 28.6174 175.235 28.9601V31.2334H174.955C174.834 31.1428 174.655 31.0134 174.422 30.8467C174.188 30.6787 173.962 30.5374 173.746 30.4214C173.492 30.2814 173.2 30.1627 172.863 30.0627C172.527 29.9641 172.17 29.9134 171.792 29.9134C171.351 29.9134 170.95 29.9787 170.59 30.1081C170.23 30.2387 169.907 30.4387 169.62 30.7067C169.347 30.9681 169.131 31.2987 168.972 31.7001C168.815 32.1001 168.735 32.5641 168.735 33.0881C168.735 34.1601 169.019 34.9801 169.587 35.5467C170.154 36.1161 170.994 36.4001 172.104 36.4001C172.2 36.4001 172.306 36.3974 172.42 36.3934C172.535 36.3894 172.64 36.3827 172.735 36.3734V34.4694H170.804V32.6427H175.276V37.4281Z" fill="white"/>
<path d="M75.6496 49.5386H74.3149L71.2589 46.0852L70.4829 46.9079V49.5386H69.4482V41.7812H70.4829V45.8186L74.2375 41.7812H75.4896L72.0389 45.4279L75.6496 49.5386Z" fill="white"/>
<path d="M82.7054 45.6627C82.7054 44.6547 82.48 43.8787 82.0294 43.3307C81.5787 42.7841 80.9641 42.5107 80.1841 42.5107C79.3961 42.5107 78.7788 42.7841 78.3294 43.3307C77.8801 43.8787 77.6561 44.6547 77.6561 45.6627C77.6561 46.6801 77.8854 47.4587 78.3428 47.9987C78.8001 48.5387 79.4147 48.8094 80.1841 48.8094C80.9534 48.8094 81.5654 48.5387 82.0214 47.9987C82.4774 47.4587 82.7054 46.6801 82.7054 45.6627ZM82.8027 42.6734C83.1187 43.0214 83.3614 43.4467 83.5294 43.9494C83.6974 44.4534 83.7814 45.0241 83.7814 45.6627C83.7814 46.3014 83.6961 46.8734 83.5241 47.3787C83.3521 47.8841 83.1107 48.3041 82.8027 48.6414C82.4827 48.9921 82.1054 49.256 81.6694 49.432C81.2348 49.6094 80.7374 49.6987 80.1787 49.6987C79.6334 49.6987 79.1387 49.6081 78.6921 49.4267C78.2454 49.2467 77.8667 48.9841 77.5534 48.6414C77.2414 48.2974 77.0014 47.8761 76.8321 47.3761C76.6641 46.8761 76.5801 46.3054 76.5801 45.6627C76.5801 45.0307 76.6628 44.4641 76.8294 43.9627C76.9961 43.4614 77.2401 43.032 77.5588 42.6734C77.8654 42.3334 78.2441 42.0734 78.6974 41.8934C79.1494 41.7121 79.644 41.6214 80.1787 41.6214C80.7334 41.6214 81.2321 41.7134 81.6747 41.8961C82.1174 42.0774 82.4934 42.3374 82.8027 42.6734Z" fill="white"/>
<path d="M92.9702 49.5386H91.9342V42.8546L89.7796 47.3986H89.165L87.0263 42.8546V49.5386H86.0596V41.7812H87.4676L89.5356 46.0972L91.5343 41.7812H92.9702V49.5386Z" fill="white"/>
<path d="M102.598 49.5386H101.565V42.8546L99.4091 47.3986H98.7944L96.6544 42.8546V49.5386H95.6904V41.7812H97.0971L99.1637 46.0972L101.164 41.7812H102.598V49.5386Z" fill="white"/>
<path d="M111.152 46.4227C111.152 46.9841 111.092 47.4747 110.968 47.8934C110.845 48.3121 110.644 48.6601 110.363 48.9374C110.095 49.2014 109.783 49.3947 109.427 49.5161C109.069 49.6374 108.652 49.6987 108.177 49.6987C107.693 49.6987 107.269 49.6334 106.909 49.5054C106.548 49.3774 106.245 49.1881 105.999 48.9374C105.717 48.6534 105.516 48.3094 105.393 47.9067C105.269 47.5041 105.208 47.0094 105.208 46.4227V41.7814H106.243V46.472C106.243 46.892 106.271 47.224 106.328 47.4667C106.385 47.7094 106.483 47.9294 106.616 48.1267C106.768 48.3534 106.976 48.5227 107.236 48.6374C107.497 48.7521 107.812 48.8094 108.177 48.8094C108.548 48.8094 108.863 48.7534 109.123 48.6401C109.381 48.5281 109.589 48.3561 109.745 48.1267C109.879 47.9294 109.976 47.7041 110.033 47.4481C110.091 47.1934 110.117 46.8761 110.117 46.4974V41.7814H111.152V46.4227Z" fill="white"/>
<path d="M119.684 49.5386H118.407L114.732 42.5986V49.5386H113.767V41.7812H115.368L118.719 48.1159V41.7812H119.684V49.5386Z" fill="white"/>
<path d="M127.49 49.5386H122.386V41.7812H127.49V42.6986H123.422V44.8226H127.49V45.7399H123.422V48.6213H127.49V49.5386Z" fill="white"/>
<path d="M53.7611 39.6947V42.068H51.8531V39.6947H49.8544V42.068H47.9451V39.6947H45.9465V42.068H44.0384V39.6947H42.0411V42.068H40.1318V39.6947H38.1331V42.068H36.2251V39.6947H34.2891V44.1934H55.6984V39.6947H53.7611Z" fill="#BC4D30"/>
<path d="M36.6805 49.7893C36.1485 49.0746 35.6565 48.324 35.2578 47.4666C35.5791 47.476 36.0525 47.428 36.5458 47.2906C37.2952 47.0826 37.7831 46.7906 38.2485 46.4226C38.3725 46.324 38.5951 46.108 38.7658 45.9306C38.9178 45.776 39.0272 45.6506 39.0272 45.6506L39.0285 45.6493C39.0285 45.6493 39.4698 46.3613 39.8578 46.7573C40.3165 47.224 40.9431 47.5853 41.9351 47.5853C43.0831 47.5853 43.9845 46.7213 44.1258 46.5906C44.2471 46.4773 44.4045 46.3226 44.5592 46.156C44.7405 45.9626 44.9125 45.7546 45.0045 45.6373C45.0965 45.7546 45.2685 45.9626 45.4498 46.156C45.6045 46.3226 45.7619 46.4773 45.8845 46.5906C46.0245 46.7213 46.9271 47.5853 48.0738 47.5853C49.0658 47.5853 49.6925 47.224 50.1511 46.7573C50.5391 46.3613 50.9832 45.6493 50.9832 45.6493C50.9832 45.6493 51.0925 45.776 51.2432 45.9306C51.4152 46.108 51.6365 46.3226 51.7618 46.4226C52.2258 46.7906 52.7139 47.0826 53.4645 47.2906C53.9565 47.4266 54.4312 47.4746 54.7525 47.4666C54.3525 48.324 53.8618 49.0746 53.3284 49.788C53.1418 49.712 52.8885 49.652 52.4871 49.4413C51.6231 48.9866 51.0778 48.4546 50.9178 48.192C50.8205 48.3586 50.8058 48.3613 50.6511 48.576C50.5671 48.6813 50.4152 48.8853 50.2672 49.0373C50.1458 49.1653 49.8992 49.384 49.7632 49.4853C48.5218 50.4173 47.2391 50.2226 46.3618 49.5653C45.5165 48.9333 45.0045 48.152 45.0045 48.152C45.0045 48.152 44.4925 48.9333 43.6498 49.5653C42.7698 50.2226 41.4872 50.4173 40.2458 49.4853C40.1098 49.384 39.8644 49.1653 39.7418 49.0373C39.5951 48.8853 39.4418 48.6813 39.3578 48.576C39.2045 48.3613 39.1884 48.3586 39.0924 48.192C38.9311 48.4546 38.3858 48.9866 37.5218 49.4413C37.1205 49.652 36.8685 49.7133 36.6805 49.7893Z" fill="#BC4D30"/>
<path d="M55.6502 31.8531H55.6542L56.085 31.6624C56.085 31.6624 54.9369 28.4877 54.4902 26.4384C54.7969 26.3557 55.0222 26.0798 55.0222 25.7531C55.0222 25.4678 54.8529 25.2238 54.6089 25.1091L54.7316 24.8678C54.7316 24.8678 54.4596 24.7531 54.4596 24.3371V24.1357H54.7009C55.1156 24.1357 55.2316 24.4078 55.2316 24.4078L55.3463 24.2997V23.6477L55.2316 23.5398C55.2316 23.5398 55.1156 23.8131 54.7009 23.8131L54.4583 23.8117V23.5704C54.4583 23.1544 54.7316 23.0384 54.7316 23.0384L54.6222 22.9237H53.9729L53.8636 23.0384C53.8636 23.0384 54.1369 23.1544 54.1369 23.5704V23.8131H53.8929C53.4796 23.8131 53.3636 23.5398 53.3636 23.5398L53.2476 23.6477V24.2997L53.3636 24.4078C53.3636 24.4078 53.4796 24.1357 53.8929 24.1357H54.1369V24.3371C54.1369 24.7531 53.8636 24.8678 53.8636 24.8678L53.9875 25.1104C53.7462 25.2264 53.5783 25.4691 53.5783 25.7531C53.5783 26.0838 53.8089 26.3611 54.1182 26.4411C53.6716 28.4904 52.5249 31.6624 52.5249 31.6624L52.9503 31.8517V34.8651H50.9956V31.8531H50.9996L51.4303 31.6624C51.4303 31.6624 50.2823 28.4877 49.8356 26.4384C50.1423 26.3557 50.3676 26.0798 50.3676 25.7531C50.3676 25.4678 50.1982 25.2238 49.9529 25.1091L50.0783 24.8678C50.0783 24.8678 49.8049 24.7531 49.8049 24.3371V24.1357H50.0449C50.4609 24.1357 50.5769 24.4078 50.5769 24.4078L50.693 24.2997V23.6477L50.5769 23.5398C50.5769 23.5398 50.4609 23.8131 50.0449 23.8131L49.8035 23.8117V23.5704C49.8035 23.1544 50.0769 23.0384 50.0769 23.0384L49.9689 22.9237H49.3169L49.2076 23.0384C49.2076 23.0384 49.4823 23.1544 49.4823 23.5704V23.8131H49.2396C48.8223 23.8131 48.7076 23.5398 48.7076 23.5398L48.5929 23.6477V24.2997L48.7076 24.4078C48.7076 24.4078 48.8223 24.1357 49.2396 24.1357H49.4823V24.3371C49.4823 24.7531 49.2076 24.8678 49.2076 24.8678L49.3329 25.1104C49.0916 25.2264 48.9236 25.4691 48.9236 25.7531C48.9236 26.0838 49.153 26.3611 49.4636 26.4411C49.017 28.4904 47.8703 31.6624 47.8703 31.6624L48.2956 31.8517V34.8651H46.3409V31.8531H46.3449L46.7756 31.6624C46.7756 31.6624 45.6249 26.8171 45.1796 24.6318C45.4863 24.5491 45.7116 24.2731 45.7116 23.9451C45.7116 23.6611 45.5422 23.4157 45.2996 23.3024L45.4236 23.0598C45.4236 23.0598 45.1489 22.9451 45.1489 22.5291V22.3278H45.3902C45.8076 22.3278 45.9223 22.5998 45.9223 22.5998L46.0382 22.4918V21.8411L45.9223 21.7318C45.9223 21.7318 45.8076 22.0051 45.3902 22.0051H45.1489V21.7624C45.1489 21.3464 45.4223 21.2318 45.4223 21.2318L45.3143 21.1157H44.6623L44.5543 21.2318C44.5543 21.2318 44.8263 21.3464 44.8263 21.7624V22.0051H44.585C44.169 22.0051 44.0529 21.7318 44.0529 21.7318L43.9382 21.8411V22.4918L44.0529 22.5998C44.0529 22.5998 44.169 22.3278 44.585 22.3278H44.8276V22.5291C44.8276 22.9451 44.5543 23.0598 44.5543 23.0598L44.6782 23.3038C44.4356 23.4184 44.2676 23.6624 44.2676 23.9451C44.2676 24.2771 44.4996 24.5558 44.8116 24.6344C44.3663 26.8211 43.2156 31.6624 43.2156 31.6624L43.641 31.8517V34.8651H41.6876V31.8531H41.6903L42.1222 31.6624C42.1222 31.6624 40.9743 28.4877 40.5276 26.4384C40.8316 26.3557 41.0569 26.0798 41.0569 25.7531C41.0569 25.4678 40.8876 25.2238 40.6436 25.1091L40.7676 24.8517C40.7676 24.8517 40.4942 24.7371 40.4942 24.3211V24.1198H40.7369C41.1516 24.1198 41.2676 24.3931 41.2676 24.3931L41.3822 24.2851V23.6331L41.2676 23.5251C41.2676 23.5251 41.1516 23.7971 40.7369 23.7971H40.4942V23.5544C40.4942 23.1398 40.7676 23.0237 40.7676 23.0237L40.6583 22.9091H40.0076L39.8983 23.0237C39.8983 23.0237 40.1715 23.1398 40.1715 23.5544V23.7971H39.929C39.5143 23.7971 39.3996 23.5251 39.3996 23.5251L39.2836 23.6331V24.2851L39.3996 24.3931C39.3996 24.3931 39.5143 24.1198 39.929 24.1198H40.1729V24.3211C40.1729 24.7371 39.8996 24.8517 39.8996 24.8517L40.0249 25.1104C39.7809 25.2251 39.6143 25.4691 39.6143 25.7531C39.6143 26.0838 39.8436 26.3611 40.1529 26.4411C39.7076 28.4904 38.5596 31.6624 38.5596 31.6624L38.9862 31.8517V34.8651H37.033V31.8531H37.0369L37.4662 31.6624C37.4662 31.6624 36.3182 28.4877 35.8716 26.4384C36.1782 26.3557 36.4023 26.0798 36.4023 25.7531C36.4023 25.4678 36.2329 25.2238 35.9875 25.1091L36.1143 24.8517C36.1143 24.8517 35.8409 24.7371 35.8409 24.3211V24.1198H36.0823C36.4969 24.1198 36.6116 24.3931 36.6116 24.3931L36.7276 24.2851V23.6331L36.6116 23.5251C36.6116 23.5251 36.4969 23.7971 36.0823 23.7971H35.8396V23.5544C35.8396 23.1398 36.113 23.0237 36.113 23.0237L36.0036 22.9091H35.3529L35.245 23.0237C35.245 23.0237 35.5182 23.1398 35.5182 23.5544V23.7971H35.2756C34.8596 23.7971 34.745 23.5251 34.745 23.5251L34.6289 23.6331V24.2851L34.745 24.3931C34.745 24.3931 34.8596 24.1198 35.2756 24.1198H35.5182V24.3211C35.5182 24.7371 35.245 24.8517 35.245 24.8517L35.3703 25.1104C35.1276 25.2251 34.9596 25.4691 34.9596 25.7531C34.9596 26.0838 35.1889 26.3611 35.4996 26.4411C35.0516 28.4904 33.9062 31.6624 33.9062 31.6624L34.3316 31.8517V35.0877H34.3302V37.6704H55.6502V35.1971V31.8531Z" fill="#BC4D30"/>
</svg>
